<?xml version="1.0" standalone="no"?>
<!DOCTYPE svg PUBLIC "-//W3C//DTD SVG 20010904//EN"
 "http://www.w3.org/TR/2001/REC-SVG-20010904/DTD/svg10.dtd">
<svg version="1.0" xmlns="http://www.w3.org/2000/svg"
 width="512.000000pt" height="512.000000pt" viewBox="0 0 512.000000 512.000000"
 preserveAspectRatio="xMidYMid meet">

	<g transform="translate(0.000000,512.000000) scale(0.100000,-0.100000)"
	fill="#000000" stroke="none">
		<path d="M2605 4966 c-128 -29 -262 -113 -332 -206 l-37 -50 -126 0 c-209 0
-333 -41 -436 -144 -155 -156 -160 -364 -13 -518 l59 -63 0 -543 c0 -603 3
-634 65 -768 50 -109 109 -190 218 -297 l99 -99 -38 -39 c-47 -49 -94 -63
-259 -78 -359 -32 -608 -172 -726 -406 l-30 -60 -432 -5 c-389 -5 -436 -7
-468 -23 -83 -41 -138 -123 -146 -218 -9 -96 53 -200 146 -246 28 -14 66 -19
169 -21 l132 -4 32 -61 c51 -103 125 -201 218 -291 l89 -86 -58 0 c-77 0 -155
-39 -196 -98 -29 -43 -30 -47 -33 -184 -3 -97 0 -150 9 -172 22 -54 59 -94
112 -121 51 -25 53 -25 308 -25 285 0 292 2 305 67 5 26 1 37 -19 57 l-26 26
-244 0 c-311 0 -297 -7 -297 149 0 99 2 109 23 129 l23 22 811 0 c951 0 856
14 862 -124 4 -100 -2 -129 -29 -156 -19 -19 -35 -20 -440 -20 l-421 0 -24
-25 c-32 -31 -32 -69 0 -100 l24 -25 422 0 c454 0 472 2 534 52 55 46 78 99
83 196 l5 82 875 -2 875 -3 12 -48 c17 -69 61 -125 125 -161 54 -31 56 -31
195 -30 121 0 148 3 198 23 110 43 195 132 234 245 15 43 18 85 18 276 0 211
-2 229 -24 283 -31 78 -115 167 -193 207 -34 16 -69 30 -80 30 -17 0 -18 22
-18 534 l0 533 83 5 c127 7 212 60 268 168 l24 45 0 406 0 405 -30 59 c-35 69
-103 126 -174 147 -32 9 -110 13 -256 13 -198 0 -213 -1 -260 -23 -63 -29
-119 -83 -153 -147 l-27 -50 0 -400 0 -400 28 -57 c52 -106 137 -159 265 -166
l82 -5 0 -528 0 -529 -63 0 -62 0 -47 191 c-51 210 -87 298 -160 386 -142 171
-361 261 -711 292 -117 10 -180 36 -214 87 -16 25 -16 25 55 90 133 121 241
290 288 449 16 54 18 121 21 626 l4 566 55 57 c81 83 109 149 109 256 0 76 -4
93 -32 151 -61 123 -182 215 -320 244 -39 8 -124 15 -198 15 l-130 0 -23 41
c-53 92 -139 161 -248 200 -76 27 -226 34 -309 15z m277 -166 c74 -27 132 -85
168 -165 21 -47 35 -66 52 -69 13 -3 104 -7 203 -8 173 -3 182 -4 240 -31 110
-52 169 -130 169 -227 0 -79 -25 -120 -127 -206 l-37 -31 0 -243 0 -242 -22 5
c-117 29 -491 77 -600 77 -49 0 -59 -3 -77 -26 -26 -33 -27 -65 -3 -94 17 -20
34 -24 178 -37 87 -8 164 -16 170 -18 6 -2 14 -29 17 -61 14 -132 114 -262
257 -331 l80 -38 0 -53 c0 -179 -83 -363 -232 -512 -228 -228 -558 -343 -773
-271 -157 53 -326 155 -441 267 -159 155 -233 314 -234 500 l0 72 75 35 c139
66 229 178 258 322 l14 70 59 7 c32 4 115 11 183 16 111 8 126 11 143 32 24
29 23 75 -2 100 -17 17 -33 20 -98 20 -120 0 -485 -46 -609 -77 l-23 -5 0 241
c0 273 11 234 -88 323 -54 49 -75 91 -75 153 0 93 67 180 178 232 57 26 68 28
230 31 94 1 180 5 192 7 13 3 33 24 48 49 32 55 119 137 173 165 105 54 246
62 354 21z m-832 -1375 c-13 -56 -58 -123 -108 -160 -71 -52 -73 -50 -70 63
l3 97 80 17 c110 22 104 23 95 -17z m1445 11 l50 -11 3 -103 3 -103 -31 16
c-76 39 -138 117 -155 193 l-7 33 44 -7 c23 -4 66 -12 93 -18z m1421 -16 c53
-49 54 -61 54 -441 0 -388 -1 -397 -64 -442 -29 -21 -43 -22 -224 -25 -178 -3
-197 -2 -235 17 -83 40 -82 36 -82 456 0 412 -1 403 68 446 30 18 47 19 244
17 210 -3 212 -3 239 -28z m-2426 -1342 c166 -55 336 -42 540 42 41 17 92 41
115 53 l41 23 42 -47 42 -47 -42 -37 c-204 -185 -736 -204 -995 -36 -91 59
-92 62 -44 119 l42 49 82 -43 c45 -24 125 -58 177 -76z m-520 -223 l0 -166
-97 3 -98 3 0 155 0 155 35 6 c19 4 63 7 98 8 l62 1 0 -165z m1628 158 l52 -6
-2 -236 -3 -236 -95 0 -95 0 -3 243 -2 242 47 0 c27 0 72 -3 101 -7z m-1978
-178 l0 -145 -200 0 c-110 0 -200 4 -200 8 0 13 52 83 91 121 51 51 133 100
218 132 42 15 79 28 84 29 4 0 7 -65 7 -145z m2340 83 c62 -30 102 -58 148
-104 86 -86 118 -161 176 -406 l46 -197 -25 -47 c-25 -46 -25 -50 -25 -295 l0
-249 -109 0 -110 0 -10 53 c-6 28 -35 197 -66 375 -63 368 -75 402 -160 458
l-25 16 0 228 0 228 38 -10 c20 -5 75 -28 122 -50z m-1662 -88 c126 -46 238
-64 402 -64 80 0 179 5 220 13 111 20 247 66 314 106 32 19 60 35 62 35 2 0 4
-88 4 -195 l0 -195 -180 0 -179 0 -15 28 c-18 35 -72 85 -116 108 -32 17 -66
19 -362 22 l-328 3 0 114 0 115 49 -31 c28 -16 85 -43 129 -59z m-1922 -315
c-6 -24 7 -136 21 -170 5 -15 -4 -17 -90 -14 -90 4 -98 6 -124 32 -50 50 -33
141 32 168 11 4 53 8 94 8 l73 1 -6 -25z m2052 -20 c7 -82 -45 -240 -118 -362
-93 -152 -206 -263 -357 -349 l-78 -44 -389 0 -389 0 -71 36 c-90 46 -139 80
-210 145 -114 104 -211 259 -260 417 -24 78 -34 180 -19 195 3 4 430 6 947 5
l941 -3 3 -40z m328 26 c44 -27 60 -77 40 -124 -21 -51 -59 -67 -157 -67 -80
0 -81 0 -74 23 4 12 9 59 12 105 l6 82 71 0 c52 0 79 -5 102 -19z m1011 -167
c11 -17 38 -150 78 -380 l61 -354 -703 0 -703 0 -47 49 c-56 58 -95 71 -207
71 l-78 0 71 66 c87 80 174 194 226 296 l39 76 136 4 c114 3 141 7 176 25 51
27 108 90 124 137 l12 36 399 0 399 0 17 -26z m998 -228 c65 -30 111 -83 131
-152 13 -45 15 -91 12 -237 -4 -199 -11 -227 -74 -291 -58 -57 -98 -70 -227
-70 l-119 -1 -29 33 -29 32 0 323 c0 406 -10 385 180 386 90 1 112 -3 155 -23z"/>
		<path d="M2650 4471 l-31 -31 3 -201 c3 -197 3 -201 27 -220 30 -25 76 -24
101 1 19 19 20 33 20 228 0 229 -1 232 -62 247 -22 6 -33 1 -58 -24z"/>
		<path d="M2135 4315 c-25 -24 -25 -25 -25 -223 0 -222 4 -236 67 -248 26 -5
37 -1 57 19 l26 26 0 201 c0 200 0 201 -25 225 -13 14 -36 25 -50 25 -14 0
-37 -11 -50 -25z"/>
		<path d="M3166 4319 l-26 -20 0 -209 0 -209 26 -20 c30 -24 43 -26 78 -10 42
20 47 51 44 258 -3 189 -3 193 -27 212 -30 25 -62 24 -95 -2z"/>
		<path d="M2288 3251 c-41 -13 -95 -49 -102 -67 -14 -36 -6 -73 20 -93 33 -26
45 -26 94 -1 22 11 59 20 85 20 26 0 63 -9 85 -20 49 -25 61 -25 94 1 28 22
35 64 16 100 -21 37 -89 62 -180 66 -47 1 -97 -2 -112 -6z"/>
		<path d="M2885 3245 c-89 -34 -120 -101 -70 -150 29 -30 49 -31 98 -5 50 27
118 26 174 -2 41 -20 47 -21 71 -7 68 38 60 105 -18 148 -56 32 -192 40 -255
16z"/>
		<path d="M1194 3146 c-40 -41 -57 -68 -69 -111 -20 -69 -15 -104 31 -206 19
-42 34 -88 34 -102 0 -14 -15 -43 -35 -67 -51 -61 -45 -115 14 -139 42 -18 82
6 128 75 31 46 38 67 41 119 4 53 0 73 -23 122 -63 135 -63 157 -3 220 41 42
42 87 4 120 -41 35 -64 29 -122 -31z"/>
		<path d="M779 2749 c-92 -100 -104 -183 -45 -320 20 -47 36 -96 36 -109 0 -14
-16 -45 -35 -69 -41 -52 -44 -83 -10 -116 38 -39 75 -33 124 21 84 90 94 176
36 304 -43 95 -44 129 -6 172 56 66 62 112 18 143 -39 27 -77 19 -118 -26z"/>
	</g>
</svg>
