<?xml version="1.0" standalone="no"?>
<!DOCTYPE svg PUBLIC "-//W3C//DTD SVG 20010904//EN"
 "http://www.w3.org/TR/2001/REC-SVG-20010904/DTD/svg10.dtd">
<svg version="1.0" xmlns="http://www.w3.org/2000/svg"
 width="768.000000pt" height="768.000000pt" viewBox="0 0 768.000000 768.000000"
 preserveAspectRatio="xMidYMid meet">

<g transform="translate(0.000000,768.000000) scale(0.100000,-0.100000)"
fill="#000000" stroke="none">
<path d="M3935 6253 c-144 -19 -293 -104 -380 -214 l-36 -46 -152 -6 c-178 -6
-251 -24 -347 -88 -117 -79 -180 -193 -180 -327 0 -65 5 -87 30 -140 16 -34
51 -84 79 -112 l50 -50 3 -572 c4 -623 4 -616 63 -747 52 -112 177 -269 284
-355 34 -27 34 -28 19 -54 -9 -15 -37 -40 -62 -56 -39 -24 -62 -30 -148 -38
-416 -36 -664 -161 -786 -396 l-43 -81 -432 -3 c-422 -3 -433 -4 -473 -25
-157 -84 -188 -291 -62 -409 63 -60 90 -68 238 -72 l135 -4 27 -56 c48 -100
110 -185 208 -283 l96 -97 -68 -4 c-93 -7 -152 -43 -190 -117 -26 -50 -28 -61
-28 -177 0 -142 10 -178 68 -237 58 -60 99 -67 368 -67 152 0 242 4 258 11 37
17 51 60 32 97 -8 16 -23 32 -31 36 -9 3 -126 6 -259 6 -303 0 -286 -9 -286
150 0 97 2 112 20 130 20 20 33 20 835 20 l816 0 24 -25 c23 -22 25 -31 25
-125 0 -94 -2 -103 -25 -125 l-24 -25 -416 0 c-274 0 -423 -4 -436 -11 -49
-26 -43 -107 10 -129 19 -7 153 -10 452 -8 417 3 425 3 466 25 78 42 111 103
120 225 l6 78 878 0 879 0 0 -27 c1 -67 70 -160 145 -194 59 -27 293 -27 370
0 111 39 207 137 242 247 20 63 30 361 15 457 -25 161 -128 286 -269 328 l-43
12 0 532 0 532 79 6 c132 9 217 61 268 165 l28 57 0 400 c0 399 0 400 -23 447
-29 58 -80 111 -135 141 -39 21 -56 22 -270 25 -190 3 -236 1 -277 -13 -66
-22 -141 -91 -171 -157 -23 -52 -24 -60 -27 -395 -5 -444 4 -499 91 -586 54
-54 114 -78 208 -84 l79 -6 0 -528 0 -527 -61 -4 c-34 -1 -63 0 -64 3 -2 3
-25 90 -50 194 -59 244 -90 311 -200 421 -148 149 -349 226 -655 249 -118 9
-157 23 -209 72 l-44 42 59 50 c114 95 220 241 274 374 56 139 60 196 60 771
l0 521 35 28 c92 73 148 218 127 329 -29 154 -137 273 -302 329 -53 18 -95 23
-223 27 l-158 5 -20 40 c-78 151 -297 247 -504 220z m248 -181 c74 -37 109
-73 144 -148 38 -84 32 -82 253 -86 190 -3 196 -4 252 -31 98 -48 168 -145
168 -234 0 -48 -47 -130 -98 -170 -76 -60 -72 -42 -72 -306 l0 -239 -32 6
c-220 46 -603 86 -643 68 -37 -17 -51 -54 -35 -91 14 -35 51 -51 124 -52 28 0
94 -6 145 -12 l95 -12 12 -67 c18 -95 43 -145 109 -216 43 -47 78 -72 142
-104 l85 -43 -4 -90 c-16 -278 -210 -532 -523 -680 -146 -69 -218 -89 -330
-89 -75 0 -104 5 -177 31 -242 85 -487 286 -583 478 -46 92 -65 171 -65 271
l0 83 77 37 c139 67 231 184 255 326 l11 66 51 6 c28 3 92 8 141 11 143 9 175
15 196 36 25 25 24 70 -3 99 -21 22 -25 23 -143 16 -137 -7 -305 -28 -464 -56
-58 -11 -109 -20 -113 -20 -5 0 -8 107 -8 238 0 263 4 245 -74 307 -51 40 -96
118 -96 166 0 87 73 184 175 235 58 28 65 29 230 32 94 1 180 5 193 8 13 2 43
33 72 73 97 133 220 194 381 188 74 -3 96 -8 152 -35z m-849 -1359 c-18 -81
-79 -159 -153 -198 l-31 -16 0 105 0 104 73 15 c111 23 119 22 111 -10z m1409
11 l87 -16 0 -104 c0 -57 -4 -104 -9 -104 -13 0 -101 68 -123 94 -36 43 -72
146 -52 146 5 0 48 -7 97 -16z m1438 -12 c68 -42 69 -47 69 -449 0 -394 -1
-402 -63 -447 -27 -20 -42 -21 -240 -21 -203 0 -213 1 -243 22 -63 45 -64 54
-64 442 0 379 2 392 53 440 38 35 74 40 272 38 168 -2 182 -4 216 -25z m-2571
-1284 c190 -93 304 -117 458 -94 114 18 206 48 318 104 l80 40 44 -50 44 -51
-30 -24 c-53 -44 -106 -74 -172 -99 -122 -46 -195 -58 -372 -57 -145 0 -177 3
-261 25 -112 30 -204 74 -259 125 l-40 36 42 47 c24 26 45 47 48 46 3 0 48
-22 100 -48z m-360 -288 l0 -170 -100 0 -100 0 0 159 0 160 53 5 c28 3 70 8
92 9 22 2 43 4 48 5 4 1 7 -74 7 -168z m1668 151 c9 -1 12 -56 12 -241 l0
-240 -100 0 -100 0 0 243 c0 134 2 246 4 248 3 2 42 1 88 -3 46 -3 89 -7 96
-7z m-2008 -176 l0 -145 -205 0 c-113 0 -205 3 -205 8 0 38 122 164 201 207
53 28 173 74 197 75 9 0 12 -36 12 -145z m2252 119 c95 -34 172 -81 229 -141
94 -98 112 -140 175 -408 l45 -193 -23 -44 c-22 -41 -23 -56 -28 -298 l-5
-255 -107 -3 c-105 -3 -108 -2 -113 20 -2 13 -32 183 -65 378 -34 195 -69 373
-79 395 -17 38 -81 105 -101 105 -6 0 -10 91 -10 235 0 129 2 235 4 235 3 0
38 -12 78 -26z m-1486 -152 c50 -12 141 -27 203 -33 205 -20 442 20 602 102
46 24 87 45 92 47 4 2 7 -84 7 -192 l0 -196 -179 0 -178 0 -26 39 c-15 22 -42
51 -61 66 -66 50 -103 55 -433 55 l-303 0 0 114 0 113 93 -46 c51 -26 133 -57
183 -69z m-2013 -349 c3 -49 8 -96 12 -105 6 -16 -1 -18 -85 -18 -91 0 -92 0
-126 34 -47 47 -47 95 0 142 33 33 36 34 114 34 l79 0 6 -87z m2045 25 c2 -43
-5 -80 -28 -150 -83 -249 -252 -448 -477 -562 l-52 -26 -393 0 -393 0 -74 40
c-197 108 -349 278 -431 483 -44 109 -65 214 -51 250 l11 27 942 -2 943 -3 3
-57z m344 33 c28 -25 33 -36 33 -76 0 -40 -5 -51 -33 -76 -31 -28 -37 -29
-123 -29 -90 0 -91 0 -85 23 4 12 10 59 13 105 l6 82 78 0 c73 0 81 -2 111
-29z m981 -141 c17 -14 29 -37 37 -73 24 -112 117 -672 113 -679 -2 -5 -318
-8 -702 -8 l-698 0 -33 41 c-49 62 -116 89 -218 89 l-83 0 88 88 c87 85 179
211 224 305 l23 47 111 0 c69 0 130 6 161 15 66 19 127 73 159 140 l26 55 383
0 c369 0 384 -1 409 -20z m1005 -236 c47 -19 97 -67 125 -119 20 -36 22 -58
25 -227 3 -151 0 -198 -13 -244 -21 -74 -83 -137 -156 -158 -68 -21 -210 -21
-253 -1 -60 29 -61 32 -64 355 -4 318 1 355 45 389 22 18 40 21 140 21 80 0
125 -5 151 -16z"/>
<path d="M3927 5752 c-15 -16 -17 -47 -17 -225 0 -199 1 -207 22 -227 28 -26
58 -26 92 1 l26 20 0 205 c0 191 -1 205 -20 224 -26 26 -81 26 -103 2z"/>
<path d="M3432 5610 c-12 -5 -27 -21 -32 -35 -14 -37 -13 -378 1 -409 17 -37
60 -51 97 -32 16 8 32 23 36 31 3 9 6 104 6 211 0 194 0 195 -25 219 -25 26
-45 30 -83 15z"/>
<path d="M4445 5595 c-25 -24 -25 -25 -25 -223 0 -179 2 -202 18 -223 25 -30
75 -30 105 0 21 20 22 32 25 199 4 197 -4 242 -43 260 -38 17 -53 15 -80 -13z"/>
<path d="M3561 4525 c-53 -17 -101 -60 -101 -93 0 -65 52 -94 112 -62 25 13
58 20 93 20 35 0 68 -7 93 -20 44 -23 83 -16 101 19 55 101 -134 187 -298 136z"/>
<path d="M4193 4530 c-115 -27 -163 -127 -79 -166 31 -15 35 -15 74 5 54 27
129 28 179 1 59 -31 113 -4 113 57 0 81 -151 136 -287 103z"/>
<path d="M2477 4430 c-91 -100 -103 -189 -43 -316 20 -42 36 -88 36 -102 0
-14 -16 -49 -36 -78 -27 -40 -35 -59 -30 -78 9 -37 33 -56 70 -56 27 0 42 9
73 43 84 91 92 176 29 315 -43 95 -42 110 9 172 59 71 41 140 -37 140 -29 0
-43 -8 -71 -40z"/>
<path d="M2069 4033 c-96 -87 -114 -195 -55 -320 50 -103 50 -126 4 -179 -40
-45 -44 -97 -9 -125 13 -11 34 -19 47 -19 34 0 89 53 120 116 36 74 31 140
-20 252 -40 89 -41 109 -1 152 41 44 54 79 43 111 -21 59 -71 64 -129 12z"/>
</g>
</svg>
